<svg xmlns="http://www.w3.org/2000/svg" viewBox="0 0 64 64" width="64" height="64">
  <defs>
    <linearGradient id="bg" x1="0" y1="0" x2="1" y2="1">
      <stop offset="0" stop-color="#7c6bf5"/>
      <stop offset="1" stop-color="#4f8ff0"/>
    </linearGradient>
  </defs>
  <rect width="64" height="64" rx="15" fill="url(#bg)"/>
  <g fill="none" stroke="#ffffff" stroke-width="3.4" stroke-linecap="round" stroke-linejoin="round">
    <path d="M32 21 C 26.5 17, 19 17, 14 18.5 L 14 44 C 19 42.5, 26.5 42.5, 32 46"/>
    <path d="M32 21 C 37.5 17, 45 17, 50 18.5 L 50 44 C 45 42.5, 37.5 42.5, 32 46"/>
    <path d="M32 21 L 32 46"/>
  </g>
  <g fill="none" stroke="#ffffff" stroke-width="2.4" stroke-linecap="round" opacity="0.85">
    <path d="M19.5 25.5 L 27 24.5"/>
    <path d="M19.5 31 L 27 30"/>
    <path d="M37 24.5 L 44.5 25.5"/>
    <path d="M37 30 L 44.5 31"/>
  </g>
</svg>
